HIERARCHY
ROOT Hips
{
	OFFSET 0.000000 0.000000 0.000000
	CHANNELS 6 Xposition Yposition Zposition Xrotation Yrotation Zrotation
	JOINT LeftUpLeg_virtual
	{
		OFFSET 0.000000 0.000000 0.000000
		CHANNELS 3 Xrotation Yrotation Zrotation
		JOINT LeftUpLeg
		{
			OFFSET 10.205400 -3.823500 0.155100
			CHANNELS 3 Xrotation Yrotation Zrotation
			JOINT LeftLeg
			{
				OFFSET 0.708757 -12.982077 0.567790
				CHANNELS 3 Xrotation Yrotation Zrotation
				JOINT LeftFoot
				{
					OFFSET -0.708756 -10.717838 -2.184338
					CHANNELS 3 Xrotation Yrotation Zrotation
					JOINT LeftToeBase
					{
						OFFSET 0.108149 -7.191104 7.560241
						CHANNELS 3 Xrotation Yrotation Zrotation
						JOINT LeftToe_End
						{
							OFFSET 0.070230 0.081724 4.490308
							CHANNELS 3 Xrotation Yrotation Zrotation
							End Site
							{
								OFFSET 0 0 0
							}
						}
					}
				}
			}
		}
	}
	JOINT RightUpLeg_virtual
	{
		OFFSET 0.000000 0.000000 0.000000
		CHANNELS 3 Xrotation Yrotation Zrotation
		JOINT RightUpLeg
		{
			OFFSET -10.205400 -3.823500 0.005500
			CHANNELS 3 Xrotation Yrotation Zrotation
			JOINT RightLeg
			{
				OFFSET -0.708756 -12.982134 0.610632
				CHANNELS 3 Xrotation Yrotation Zrotation
				JOINT RightFoot
				{
					OFFSET 0.708754 -10.717769 -1.945823
					CHANNELS 3 Xrotation Yrotation Zrotation
					JOINT RightToeBase
					{
						OFFSET -0.108140 -7.191069 7.372968
						CHANNELS 3 Xrotation Yrotation Zrotation
						JOINT RightToe_End
						{
							OFFSET -0.070227 0.081735 4.479403
							CHANNELS 3 Xrotation Yrotation Zrotation
							End Site
							{
								OFFSET 0 0 0
							}
						}
					}
				}
			}
		}
	}
	JOINT Spine_virtual
	{
		OFFSET 0.000000 0.000000 0.000000
		CHANNELS 3 Xrotation Yrotation Zrotation
		JOINT Spine
		{
			OFFSET 0.000000 6.876099 0.125700
			CHANNELS 3 Xrotation Yrotation Zrotation
			JOINT Spine1
			{
				OFFSET 0.000000 5.730043 0.104720
				CHANNELS 3 Xrotation Yrotation Zrotation
				JOINT Spine1_split
				{
					OFFSET 0.000000 5.730043 0.104720
					CHANNELS 3 Xrotation Yrotation Zrotation
					JOINT Spine2
					{
						OFFSET 0.000000 5.730043 0.104720
						CHANNELS 3 Xrotation Yrotation Zrotation
						JOINT Neck_virtual
						{
							OFFSET 0.000000 0.000000 0.000000
							CHANNELS 3 Xrotation Yrotation Zrotation
							JOINT Neck
							{
								OFFSET 0.000000 10.314075 0.188496
								CHANNELS 3 Xrotation Yrotation Zrotation
								JOINT Head
								{
									OFFSET 0.000000 7.643700 -2.377400
									CHANNELS 3 Xrotation Yrotation Zrotation
									JOINT HeadTop_End
									{
										OFFSET 0.000000 43.788605 -13.619600
										CHANNELS 3 Xrotation Yrotation Zrotation
										End Site
										{
											OFFSET 0 0 0
										}
									}
								}
							}
						}
						JOINT LeftShoulder_virtual
						{
							OFFSET 0.000000 0.000000 0.000000
							CHANNELS 3 Xrotation Yrotation Zrotation
							JOINT LeftShoulder
							{
								OFFSET 2.196100 4.412489 0.087492
								CHANNELS 3 Xrotation Yrotation Zrotation
								JOINT LeftShoulder_split
								{
									OFFSET 2.196100 4.412489 0.087492
									CHANNELS 3 Xrotation Yrotation Zrotation
									JOINT LeftArm
									{
										OFFSET 8.771219 -2.981674 -0.026999
										CHANNELS 3 Xrotation Yrotation Zrotation
										JOINT LeftForeArm
										{
											OFFSET 8.512804 0.000000 -0.000000
											CHANNELS 3 Xrotation Yrotation Zrotation
											JOINT LeftHand
											{
												OFFSET 18.484802 0.000000 -0.000000
												CHANNELS 3 Xrotation Yrotation Zrotation
												End Site
												{
													OFFSET 0 0 0
												}
											}
										}
									}
								}
							}
						}
						JOINT RightShoulder_virtual
						{
							OFFSET 0.000000 0.000000 0.000000
							CHANNELS 3 Xrotation Yrotation Zrotation
							JOINT RightShoulder
							{
								OFFSET -2.196100 4.412496 0.070690
								CHANNELS 3 Xrotation Yrotation Zrotation
								JOINT RightShoulder_split
								{
									OFFSET -2.196100 4.412496 0.070690
									CHANNELS 3 Xrotation Yrotation Zrotation
									JOINT RightArm
									{
										OFFSET -8.771282 -2.981682 -0.094208
										CHANNELS 3 Xrotation Yrotation Zrotation
										JOINT RightForeArm
										{
											OFFSET -8.494598 0.000000 0.000000
											CHANNELS 3 Xrotation Yrotation Zrotation
											JOINT RightHand
											{
												OFFSET -18.483803 0.000000 0.000001
												CHANNELS 3 Xrotation Yrotation Zrotation
												End Site
												{
													OFFSET 0 0 0
												}
											}
										}
									}
								}
							}
						}
					}
				}
			}
		}
	}
}
MOTION
Frames: 11
Frame Time: 0.03333333
2.700177 33.531372 0.237669 0.000000 0.000000 0.000000 -1.418041 -16.093478 -2.814933 -8.403477 23.720192 10.433499 21.343518 8.851999 3.840521 -15.453356 9.128259 -10.819378 2.925840 0.307790 -1.198156 0.000000 0.000000 0.000000 -1.007386 -14.378684 -2.855043 -0.591659 -18.613544 -8.386912 7.591426 13.009016 0.017997 -9.164496 6.191432 9.950407 -1.000758 -0.438472 0.524862 0.000000 0.000000 0.000000 -2.007499 -15.059917 -3.550047 0.566608 -0.581917 -1.135015 0.102874 -0.951061 -0.562181 1.066385 -0.938388 0.137471 0.000000 0.000000 0.000000 0.985269 -0.443173 -0.625686 1.227046 1.208768 2.498142 -0.915909 14.542369 -1.148200 0.000000 0.000000 0.000000 0.583221 -0.258236 -0.670965 -0.536976 8.951505 -0.135030 -5.615583 0.117443 -1.086341 40.447236 -59.850981 -27.964471 0.064448 -28.429744 1.446154 0.000000 0.000000 0.000000 1.035707 -0.527351 -1.048156 5.222610 4.629573 -14.348233 1.058105 4.324211 -0.263339 -39.944968 -17.802174 40.641681 179.750389 70.801686 179.966564 0.000000 0.000000 0.000000 
2.598441 33.547310 0.234840 0.000000 0.000000 0.000000 -1.397860 -15.717220 -2.823622 -8.435380 23.546995 10.753280 21.264846 8.862306 3.877995 -15.263434 8.903917 -11.155006 2.892498 0.315411 -1.181107 0.000000 0.000000 0.000000 -0.972582 -14.002865 -2.866921 -0.482505 -18.416225 -8.275777 7.794853 12.941544 0.383652 -9.486028 5.642013 9.483742 -0.812175 -0.460794 0.522662 0.000000 0.000000 0.000000 -1.984021 -14.717417 -3.552573 0.524930 -0.557247 -0.990997 0.105241 -0.948735 -0.478829 1.053887 -0.838071 0.123481 0.000000 0.000000 0.000000 0.937522 -0.457604 -0.533729 1.155660 1.196556 2.400493 -0.988961 14.391700 -1.123488 0.000000 0.000000 0.000000 0.533777 -0.245324 -0.599464 -0.508140 8.929430 -0.290620 -5.614712 -0.035983 -1.039972 40.580558 -60.105316 -27.842344 0.018196 -28.423419 1.422902 0.000000 0.000000 0.000000 1.016120 -0.513679 -0.983556 5.187650 4.725612 -13.522047 1.040666 4.306272 -0.327752 -37.387940 -15.205492 40.888945 179.878441 71.527565 179.879698 0.000000 0.000000 0.000000 
2.489324 33.566113 0.232712 0.000000 0.000000 0.000000 -1.368827 -15.306278 -2.828745 -8.459043 23.300763 11.088223 21.177121 8.867656 3.897903 -15.044984 8.695384 -11.497107 2.885544 0.325940 -1.168648 0.000000 0.000000 0.000000 -0.936468 -13.590786 -2.879397 -0.361377 -18.251201 -8.138846 7.988909 12.888548 0.735123 -9.758916 5.106676 9.032652 -0.679853 -0.478736 0.515689 0.000000 0.000000 0.000000 -1.943862 -14.359388 -3.555795 0.474069 -0.541762 -0.850181 0.112737 -0.957247 -0.402511 1.045939 -0.744076 0.095013 0.000000 0.000000 0.000000 0.896814 -0.476747 -0.451329 1.075160 1.187891 2.350852 -1.042753 14.241120 -1.079530 0.000000 0.000000 0.000000 0.495493 -0.242601 -0.534167 -0.479065 8.898300 -0.401440 -5.586674 -0.189730 -1.014145 40.615539 -60.383052 -27.782182 -0.036511 -28.352826 1.388235 0.000000 0.000000 0.000000 0.999518 -0.509255 -0.923397 5.138976 4.816320 -12.567881 1.028825 4.286268 -0.401694 -34.761411 -12.481613 41.035599 -179.966728 72.382479 179.770060 0.000000 0.000000 0.000000 
2.374723 33.585312 0.232672 0.000000 0.000000 0.000000 -1.325782 -14.858974 -2.816844 -8.472544 22.985677 11.404720 21.057227 8.862160 3.911197 -14.799114 8.503551 -11.856017 2.889005 0.338641 -1.159160 0.000000 0.000000 0.000000 -0.889422 -13.151261 -2.879475 -0.248281 -18.123016 -7.989199 8.174821 12.868857 1.047281 -9.974877 4.609386 8.630332 -0.630010 -0.495010 0.519221 0.000000 0.000000 0.000000 -1.885872 -13.979835 -3.547777 0.414316 -0.537037 -0.718639 0.122721 -0.973242 -0.338582 1.039037 -0.637340 0.058512 0.000000 0.000000 0.000000 0.859249 -0.498449 -0.383901 0.976119 1.178300 2.352963 -1.088685 14.078438 -1.005190 0.000000 0.000000 0.000000 0.462312 -0.245380 -0.481925 -0.454063 8.868590 -0.451259 -5.526621 -0.338051 -0.999122 40.557916 -60.686210 -27.798265 -0.097735 -28.208119 1.343712 0.000000 0.000000 0.000000 0.982020 -0.512292 -0.873791 5.080024 4.900913 -11.492192 1.004756 4.242289 -0.465538 -32.034161 -9.609165 41.033646 -179.777628 73.373615 179.632869 0.000000 0.000000 0.000000 
2.258358 33.601303 0.236609 0.000000 0.000000 0.000000 -1.265425 -14.378376 -2.779618 -8.478461 22.623750 11.686870 20.896757 8.844011 3.922622 -14.527572 8.324038 -12.231653 2.889170 0.350827 -1.149910 0.000000 0.000000 0.000000 -0.819823 -12.693992 -2.857239 -0.155045 -18.039038 -7.834123 8.363719 12.881176 1.298170 -10.179277 4.159166 8.233715 -0.585692 -0.510779 0.547926 0.000000 0.000000 0.000000 -1.812770 -13.583432 -3.519625 0.349653 -0.545639 -0.601014 0.132208 -0.992474 -0.289774 1.029512 -0.545205 0.022704 0.000000 0.000000 0.000000 0.819655 -0.519935 -0.333642 0.851546 1.161697 2.396251 -1.128494 13.887494 -0.893548 0.000000 0.000000 0.000000 0.428368 -0.250277 -0.444453 -0.438524 8.847597 -0.433431 -5.443219 -0.474604 -0.985179 40.429064 -61.005310 -27.888424 -0.161718 -28.000613 1.296421 0.000000 0.000000 0.000000 0.958426 -0.518651 -0.836390 5.013482 4.974344 -10.320842 0.991140 4.174199 -0.517083 -29.198639 -6.597482 40.870838 -179.564854 74.500049 179.479367 0.000000 0.000000 0.000000 
2.141921 33.609230 0.243807 0.000000 0.000000 0.000000 -1.183744 -13.890900 -2.713259 -8.481383 22.242822 11.932276 20.703675 8.813844 3.927241 -14.245812 8.155987 -12.612175 2.879436 0.361029 -1.139010 0.000000 0.000000 0.000000 -0.723285 -12.237326 -2.809252 -0.101220 -18.009648 -7.672465 8.574252 12.915653 1.474259 -10.434193 3.758971 7.804916 -0.478449 -0.524540 0.607322 0.000000 0.000000 0.000000 -1.722385 -13.187979 -3.465672 0.282993 -0.565691 -0.497841 0.136772 -1.013230 -0.252991 1.011530 -0.450671 -0.014644 0.000000 0.000000 0.000000 0.770778 -0.539374 -0.297393 0.698563 1.137812 2.462306 -1.166318 13.666577 -0.748561 0.000000 0.000000 0.000000 0.385683 -0.254128 -0.418896 -0.432481 8.843215 -0.360527 -5.347138 -0.606141 -0.965226 40.261025 -61.339176 -28.022320 -0.219109 -27.745658 1.253204 0.000000 0.000000 0.000000 0.924854 -0.526229 -0.808849 4.944140 5.043271 -9.087981 0.984849 4.078981 -0.559578 -26.258070 -3.464754 40.563206 -179.344607 75.790566 179.326712 0.000000 0.000000 0.000000 
2.025783 33.607555 0.255758 0.000000 0.000000 0.000000 -1.080381 -13.426253 -2.621788 -8.491780 21.869362 12.150741 20.497300 8.781392 3.919264 -13.977298 8.008153 -12.970406 2.866457 0.368533 -1.127182 0.000000 0.000000 0.000000 -0.600157 -11.806170 -2.738105 -0.119104 -18.038600 -7.510215 8.855251 12.969403 1.573394 -10.751218 3.412352 7.350992 -0.344237 -0.536187 0.684174 0.000000 0.000000 0.000000 -1.613376 -12.804939 -3.390022 0.217093 -0.593910 -0.404556 0.132103 -1.033563 -0.220756 0.995554 -0.379336 -0.038034 0.000000 0.000000 0.000000 0.709579 -0.556595 -0.266659 0.517751 1.109557 2.527842 -1.205071 13.413598 -0.582337 0.000000 0.000000 0.000000 0.328933 -0.254836 -0.397035 -0.434890 8.855599 -0.263773 -5.258537 -0.718929 -0.943411 40.134437 -61.673664 -28.130897 -0.262262 -27.463965 1.222663 0.000000 0.000000 0.000000 0.877574 -0.532961 -0.783856 4.873765 5.114546 -7.837637 0.988755 3.982917 -0.600938 -23.248311 -0.254186 40.166290 -179.130577 77.296336 179.182964 0.000000 0.000000 0.000000 
1.909256 33.597527 0.269424 0.000000 0.000000 0.000000 -0.953723 -13.003569 -2.514166 -8.514222 21.522464 12.358022 20.300504 8.754060 3.892708 -13.733758 7.888811 -13.298720 2.858125 0.374158 -1.116098 0.000000 0.000000 0.000000 -0.452937 -11.419042 -2.650001 -0.233978 -18.128143 -7.344271 9.250361 13.052542 1.597312 -11.074413 3.124436 6.929051 -0.250919 -0.548123 0.755209 0.000000 0.000000 0.000000 -1.476460 -12.447952 -3.297866 0.151368 -0.627306 -0.313650 0.116094 -1.053190 -0.183582 0.988989 -0.319395 -0.056553 0.000000 0.000000 0.000000 0.630482 -0.570835 -0.230948 0.308886 1.077678 2.574547 -1.246045 13.135627 -0.409801 0.000000 0.000000 0.000000 0.256475 -0.253232 -0.370023 -0.442068 8.885420 -0.177952 -5.182372 -0.827084 -0.920633 40.109217 -61.991658 -28.156379 -0.291848 -27.175748 1.209470 0.000000 0.000000 0.000000 0.815413 -0.536411 -0.751667 4.807975 5.196209 -6.611488 0.999542 3.884341 -0.647372 -20.220393 2.972389 39.756264 -178.900645 79.097033 179.015993 0.000000 0.000000 0.000000 
1.790639 33.583511 0.284954 0.000000 0.000000 0.000000 -0.802390 -12.628406 -2.405756 -8.556730 21.208752 12.571645 20.127599 8.735387 3.844291 -13.509279 7.801524 -13.605641 2.853187 0.379664 -1.104293 0.000000 0.000000 0.000000 -0.287781 -11.084115 -2.557070 -0.444545 -18.262206 -7.168432 9.734533 13.184960 1.562646 -11.380535 2.900291 6.600130 -0.215161 -0.562404 0.805999 0.000000 0.000000 0.000000 -1.305962 -12.121823 -3.200281 0.082817 -0.660811 -0.216018 0.086608 -1.070673 -0.134105 0.976336 -0.271185 -0.070180 0.000000 0.000000 0.000000 0.535650 -0.581530 -0.182201 0.079870 1.044673 2.585892 -1.288981 12.841494 -0.248801 0.000000 0.000000 0.000000 0.169065 -0.247125 -0.330032 -0.450519 8.930904 -0.137140 -5.114403 -0.916990 -0.902072 40.242949 -62.282740 -28.041178 -0.313082 -26.898777 1.212478 0.000000 0.000000 0.000000 0.737765 -0.535460 -0.704518 4.748400 5.296722 -5.450467 1.026896 3.805678 -0.678199 -17.238883 6.159816 39.416144 -178.563821 81.227813 178.722159 0.000000 0.000000 0.000000 
1.669847 33.570618 0.296434 0.000000 0.000000 0.000000 -0.633666 -12.282999 -2.309931 -8.628693 20.925871 12.804200 19.982260 8.725270 3.777314 -13.283483 7.741507 -13.902565 2.845800 0.385845 -1.090311 0.000000 0.000000 0.000000 -0.099642 -10.783037 -2.470704 -0.705365 -18.416208 -6.957457 10.251289 13.354069 1.471660 -11.698517 2.728536 6.354127 -0.207274 -0.577600 0.835236 0.000000 0.000000 0.000000 -1.101212 -11.828343 -3.109937 0.008116 -0.691055 -0.105505 0.044492 -1.083143 -0.070291 0.957666 -0.220752 -0.075089 0.000000 0.000000 0.000000 0.430472 -0.587573 -0.117868 -0.164932 1.010659 2.556576 -1.331426 12.538399 -0.110836 0.000000 0.000000 0.000000 0.069864 -0.236583 -0.274038 -0.457747 8.985833 -0.161404 -5.046677 -0.985281 -0.892466 40.544368 -62.535873 -27.768069 -0.331018 -26.661647 1.230764 0.000000 0.000000 0.000000 0.647298 -0.529420 -0.640374 4.698459 5.412740 -4.376970 1.073419 3.727733 -0.702412 -14.367013 9.256723 39.227532 -177.853236 83.686210 178.026818 0.000000 0.000000 0.000000 
1.547699 33.563404 0.306248 0.000000 0.000000 0.000000 -0.449268 -11.957937 -2.235343 -8.727318 20.660984 13.057435 19.859058 8.717072 3.701021 -13.037018 7.695976 -14.201284 2.836584 0.393309 -1.073676 0.000000 0.000000 0.000000 0.108660 -10.504150 -2.399439 -0.953783 -18.570598 -6.690464 10.740617 13.518574 1.332467 -12.042718 2.578380 6.122785 -0.177723 -0.591133 0.850567 0.000000 0.000000 0.000000 -0.861655 -11.561103 -3.032016 -0.074618 -0.712293 0.019047 -0.006899 -1.087596 0.004286 0.934394 -0.158902 -0.086956 0.000000 0.000000 0.000000 0.323242 -0.585836 -0.041909 -0.414083 0.979609 2.487735 -1.367335 12.237962 -0.005094 0.000000 0.000000 0.000000 -0.038544 -0.218672 -0.204799 -0.461907 9.042008 -0.258463 -4.971716 -1.035642 -0.880188 40.979906 -62.751216 -27.354322 -0.347294 -26.491701 1.260001 0.000000 0.000000 0.000000 0.548051 -0.516756 -0.562903 4.659524 5.536527 -3.402384 1.142536 3.638221 -0.723198 -11.666567 12.248636 39.232098 -175.678175 86.437506 175.834997 0.000000 0.000000 0.000000 
